<svg width="18" height="18" fill="none" xmlns="http://www.w3.org/2000/svg"><g clip-path="url(#a)"><path d="m9 1.5 1.509 3.923c.211.55.317.825.482 1.056.145.205.325.385.53.53.23.165.506.27 1.056.482L16.5 9l-3.923 1.509c-.55.211-.825.317-1.056.482a2.247 2.247 0 0 0-.53.53c-.165.23-.27.506-.482 1.056L9 16.5l-1.509-3.923c-.211-.55-.317-.825-.482-1.056a2.248 2.248 0 0 0-.53-.53c-.23-.165-.506-.27-1.056-.482L1.5 9l3.923-1.509c.55-.211.825-.317 1.056-.482a2.25 2.25 0 0 0 .53-.53c.165-.23.27-.506.482-1.056L9 1.5Z"  stroke-width="1.5" stroke-linecap="round" stroke-linejoin="round"/></g><defs><clipPath id="a"><path fill="#fff" d="M0 0h18v18H0z"/></clipPath></defs></svg>